<svg id="Capa_1" enable-background="new 0 0 512.006 512.006" height="512" viewBox="0 0 512.006 512.006" width="512" xmlns="http://www.w3.org/2000/svg"><g><circle cx="466.003" cy="466" r="10"/><circle cx="226.003" cy="76" r="10"/><circle cx="10.003" cy="220" r="10"/><path d="m70.003 140c38.598 0 70-31.402 70-70s-31.402-70-70-70-70 31.402-70 70 31.402 70 70 70zm0-120c27.57 0 50 22.43 50 50s-22.43 50-50 50-50-22.43-50-50 22.43-50 50-50z"/><path d="m397.003 230c64.098 0 115-52.037 115-115 0-63.982-51.92-115-115-115-63.411 0-115 51.589-115 115 0 63.482 51.496 115 115 115zm0-210c30.906 0 59.805 15.287 77.444 40h-92.444c-5.522 0-10 4.477-10 10s4.478 10 10 10h103.345c4.414 11.111 6.655 22.855 6.655 35s-2.241 23.889-6.655 35h-43.345c-5.522 0-10 4.477-10 10s4.478 9.99 10 9.99l32.444.01c-17.639 24.713-46.538 40-77.444 40-43.03 0-80.543-29.377-91.643-70h76.643c5.522 0 10-4.477 10-10s-4.478-10-10-10h-79.855c-.086-1.662-.145-3.329-.145-5 0-52.383 42.617-95 95-95z"/><path d="m406.003 386c5.522 0 10-4.477 10-10v-20h20c5.522 0 10-4.477 10-10s-4.478-10-10-10h-20v-20c0-5.523-4.478-10-10-10s-10 4.477-10 10v20h-20c-5.522 0-10 4.477-10 10s4.478 10 10 10h20v20c0 5.523 4.477 10 10 10z"/><circle cx="61.003" cy="281.58" r="10"/><path d="m94.734 247.541c-5.107 2.102-7.543 7.947-5.44 13.054s7.946 7.543 13.054 5.44c13.274-5.464 27.356-8.235 41.855-8.235 44.073 0 82.817 26.071 100.306 64.787-16.102 26.328-38.461 54.085-64.948 80.572-26.495 26.495-54.251 48.85-80.573 64.94-38.421-17.34-64.786-55.892-64.786-100.299 0-15.852 3.296-31.144 9.795-45.452 2.284-5.028.06-10.957-4.968-13.241s-10.956-.059-13.241 4.968c-7.688 16.924-11.586 35-11.586 53.724 0 14.98 2.519 29.595 7.479 43.523-24.002 42.268-28.23 74.429-11.83 90.829 21.551 21.549 64.329 3.21 90.826-11.832 13.929 4.96 28.545 7.48 43.526 7.48 71.682 0 130-58.318 130-130 0-14.969-2.516-29.582-7.469-43.514 23.994-42.279 28.217-74.44 11.82-90.837s-48.562-12.173-90.846 11.824c-13.924-4.956-28.534-7.473-43.506-7.473-17.123.001-33.767 3.278-49.468 9.742zm-70.74 240.468c-6.037-6.036-6.681-23.548 8.299-54.032 11.15 18.801 26.938 34.586 45.739 45.734-30.491 14.977-48.002 14.333-54.038 8.298zm120.209-10.209c-6.928 0-13.762-.637-20.457-1.896 23.241-15.792 47.095-35.74 69.958-58.603 22.857-22.857 42.805-46.709 58.606-69.955 1.257 6.696 1.893 13.528 1.893 20.453 0 60.655-49.346 110.001-110 110.001zm120.209-230.209c6.035 6.035 6.679 23.548-8.294 54.041-11.157-18.807-26.948-34.597-45.75-45.745 30.495-14.974 48.009-14.331 54.044-8.296z"/></g></svg>