<svg height="480pt" viewBox="0 0 480 480" width="480pt" xmlns="http://www.w3.org/2000/svg"><path d="m448 464v-117.601562l-64-24v-66.398438h-56v-42.398438l-16 4.796876v-68.796876l-32 9.597657v-95.199219c0-19.199219-13.601562-35.199219-32-39.199219v-24.800781h-16v24.800781c-18.398438 4-32 20-32 39.199219v76.800781l-16 5.597657v43.203124l-16 4.796876v67.203124l-16 4.796876v13.601562h-56v42.398438l-64 24v117.601562h-32v16h480v-16zm-352 0h-48v-106.398438l48-18.402343zm144-424c13.601562 0 24 10.398438 24 24h-48c0-13.601562 10.398438-24 24-24zm-24 40h48v39.199219l-48 16zm-16 77.601562 64-21.601562v28l-64 20zm-16 48 96-29.601562 16-4.800781v52l-112 33.601562zm-16 72 144-43.203124v21.601562h-48v64h-96zm-56 18.398438h40v24h-40zm152 168h-48v-32c0-13.601562 10.398438-24 24-24s24 10.398438 24 24zm104 0h-88v-32c0-22.398438-17.601562-40-40-40s-40 17.601562-40 40v32h-88v-128h256zm0-144h-88v-48h88zm64 144h-48v-124.800781l48 18.402343zm0 0"/><path d="m232 96h16v16h-16zm0 0"/><path d="m256 200h16v16h-16zm0 0"/><path d="m208 216h16v16h-16zm0 0"/><path d="m208 288h16v16h-16zm0 0"/><path d="m304 288h40v16h-40zm0 0"/><path d="m400 376h16v24h-16zm0 0"/><path d="m400 416h16v32h-16zm0 0"/><path d="m64 376h16v24h-16zm0 0"/><path d="m64 416h16v32h-16zm0 0"/><path d="m200 360h80v16h-80zm0 0"/><path d="m296 360h56v16h-56zm0 0"/><path d="m296 424h56v16h-56zm0 0"/><path d="m128 360h56v16h-56zm0 0"/><path d="m128 424h56v16h-56zm0 0"/></svg>